<?xml version="1.0" encoding="UTF-8" standalone="no"?>
<!DOCTYPE svg PUBLIC "-//W3C//DTD SVG 1.1//EN"
 "http://www.w3.org/Graphics/SVG/1.1/DTD/svg11.dtd">
<!-- Generated by graphviz version 2.40.1 (20161225.0304)
 -->
<!-- Title: %0 Pages: 1 -->
<svg width="612pt" height="351pt"
 viewBox="0.00 0.00 612.00 350.60" xmlns="http://www.w3.org/2000/svg" xmlns:xlink="http://www.w3.org/1999/xlink">
<g id="graph0" class="graph" transform="scale(1 1) rotate(0) translate(4 346.5983)">
<title>%0</title>
<g id="a_graph0"><a xlink:title="Data Model">
<polygon fill="#000000" stroke="transparent" points="-4,4 -4,-346.5983 608,-346.5983 608,4 -4,4"/>
</a>
</g>
<!-- anzsic&#45;2006 -->
<g id="anzsic&#45;2006" class="node">
<title>anzsic&#45;2006</title>
<polygon fill="#ffd700" stroke="transparent" points="1.5,-231.7177 1.5,-251.7177 80.5,-251.7177 80.5,-231.7177 1.5,-231.7177"/>
<text text-anchor="start" x="3.2686" y="-237.1177" font-family="Arial" font-size="14.00" fill="#000000">anzsic&#45;2006</text>
<polygon fill="none" stroke="#aa8f00" stroke-opacity="0.666667" points="0,-230.7177 0,-252.7177 81,-252.7177 81,-230.7177 0,-230.7177"/>
</g>
<!-- emission&#45;reduction&#45;techniques -->
<g id="emission&#45;reduction&#45;techniques" class="node">
<title>emission&#45;reduction&#45;techniques</title>
<polygon fill="#228b22" stroke="transparent" points="410.5,-313.7177 410.5,-333.7177 603.5,-333.7177 603.5,-313.7177 410.5,-313.7177"/>
<text text-anchor="start" x="412.0968" y="-319.1177" font-family="Arial" font-size="14.00" fill="#ffffff">emission&#45;reduction&#45;techniques</text>
<polygon fill="none" stroke="#165c16" stroke-opacity="0.666667" points="409,-312.7177 409,-334.7177 604,-334.7177 604,-312.7177 409,-312.7177"/>
</g>
<!-- facilities -->
<g id="facilities" class="node">
<title>facilities</title>
<polygon fill="#9932cc" stroke="transparent" points="118.5,-231.7177 118.5,-251.7177 171.5,-251.7177 171.5,-231.7177 118.5,-231.7177"/>
<text text-anchor="start" x="120.1136" y="-237.1177" font-family="Arial" font-size="14.00" fill="#ffffff">facilities</text>
<polygon fill="none" stroke="#662188" stroke-opacity="0.666667" points="117,-230.7177 117,-252.7177 172,-252.7177 172,-230.7177 117,-230.7177"/>
</g>
<!-- emission&#45;reduction&#45;techniques&#45;&gt;facilities -->
<g id="emission&#45;reduction&#45;techniques_1" class="edge">
<title>emission&#45;reduction&#45;techniques:facility_id, jurisdiction_code&#45;&gt;facilities:facility_id, jurisdiction_code</title>
<path fill="none" stroke="#f4f0ef" d="M398.7037,-340.8081C339.6755,-345.287 266.7954,-342.5781 208,-314.7177 188.0769,-305.2771 171.8913,-286.3282 160.8478,-270.1024"/>
<polygon fill="#f4f0ef" stroke="#f4f0ef" points="398.8386,-340.7969 409.1794,-344.4464 403.8212,-340.3795 408.8037,-339.9621 408.8037,-339.9621 408.8037,-339.9621 403.8212,-340.3795 408.4281,-335.4778 398.8386,-340.7969 398.8386,-340.7969"/>
<polygon fill="none" stroke="#f4f0ef" points="160.8222,-270.0624 154.2165,-267.1701 154.3456,-259.9602 160.9513,-262.8524 160.8222,-270.0624"/>
</g>
<!-- reports -->
<g id="reports" class="node">
<title>reports</title>
<polygon fill="#d2691e" stroke="transparent" points="267.5,-277.7177 267.5,-297.7177 314.5,-297.7177 314.5,-277.7177 267.5,-277.7177"/>
<text text-anchor="start" x="269.2202" y="-283.1177" font-family="Arial" font-size="14.00" fill="#ffffff">reports</text>
<polygon fill="none" stroke="#8c4614" stroke-opacity="0.666667" points="266,-276.7177 266,-298.7177 315,-298.7177 315,-276.7177 266,-276.7177"/>
</g>
<!-- emission&#45;reduction&#45;techniques&#45;&gt;reports -->
<g id="emission&#45;reduction&#45;techniques_2" class="edge">
<title>emission&#45;reduction&#45;techniques:report_id, report_year&#45;&gt;reports:report_id, report_year</title>
<path fill="none" stroke="#f4f0ef" d="M398.748,-305.759C374.0914,-301.6496 349.4176,-297.5373 329.8671,-294.2789"/>
<polygon fill="#f4f0ef" stroke="#f4f0ef" points="399.063,-305.8115 408.1871,-311.8943 403.995,-306.6335 408.9269,-307.4555 408.9269,-307.4555 408.9269,-307.4555 403.995,-306.6335 409.6668,-303.0168 399.063,-305.8115 399.063,-305.8115"/>
<polygon fill="none" stroke="#f4f0ef" points="329.6479,-294.2424 323.072,-297.2016 317.8112,-292.2696 324.3872,-289.3104 329.6479,-294.2424"/>
</g>
<!-- emissions -->
<g id="emissions" class="node">
<title>emissions</title>
<polygon fill="#4682b4" stroke="transparent" points="473.5,-250.7177 473.5,-270.7177 539.5,-270.7177 539.5,-250.7177 473.5,-250.7177"/>
<text text-anchor="start" x="475.3892" y="-256.1177" font-family="Arial" font-size="14.00" fill="#ffffff">emissions</text>
<polygon fill="none" stroke="#2e5678" stroke-opacity="0.666667" points="472.5,-249.7177 472.5,-271.7177 540.5,-271.7177 540.5,-249.7177 472.5,-249.7177"/>
</g>
<!-- emissions&#45;&gt;anzsic&#45;2006 -->
<g id="emissions_1" class="edge">
<title>emissions:primary_anzsic_class_code&#45;&gt;anzsic&#45;2006:class_code</title>
<path fill="none" stroke="#f4f0ef" d="M462.6517,-275.7474C445.7235,-281.8511 426.3019,-289.225 409,-296.7177 392.5846,-303.8265 390.41,-310.6078 373,-314.7177 301.6284,-331.5662 280.5181,-325.6221 208,-314.7177 166.1547,-308.4255 155.7219,-303.7833 117,-286.7177 103.9377,-280.9608 90.3112,-273.4775 78.2394,-266.2712"/>
<polygon fill="#f4f0ef" stroke="#f4f0ef" points="462.8766,-275.6673 473.807,-276.5478 467.5862,-273.9882 472.2959,-272.3091 472.2959,-272.3091 472.2959,-272.3091 467.5862,-273.9882 470.7847,-268.0705 462.8766,-275.6673 462.8766,-275.6673"/>
<polygon fill="none" stroke="#f4f0ef" points="77.8852,-266.0544 70.6795,-266.3329 67.651,-259.7885 74.8567,-259.5101 77.8852,-266.0544"/>
</g>
<!-- emissions&#45;&gt;facilities -->
<g id="emissions_2" class="edge">
<title>emissions:facility_id, facility_name, jurisdiction_code, registered_business_name&#45;&gt;facilities:facility_id, facility_name, jurisdiction_code, registered_business_name</title>
<path fill="none" stroke="#f4f0ef" d="M462.2953,-258.3976C391.232,-254.6677 252.6617,-247.3947 184.4227,-243.8131"/>
<polygon fill="#f4f0ef" stroke="#f4f0ef" points="462.4577,-258.406 472.208,-263.424 467.4508,-258.6681 472.4439,-258.9302 472.4439,-258.9302 472.4439,-258.9302 467.4508,-258.6681 472.6798,-254.4364 462.4577,-258.406 462.4577,-258.406"/>
<polygon fill="none" stroke="#f4f0ef" points="184.1257,-243.7976 177.9243,-247.4776 172.1422,-243.1685 178.3436,-239.4886 184.1257,-243.7976"/>
</g>
<!-- emissions&#45;&gt;reports -->
<g id="emissions_3" class="edge">
<title>emissions:report_id, report_year&#45;&gt;reports:report_id, report_year</title>
<path fill="none" stroke="#f4f0ef" d="M462.2748,-266.2458C423.4527,-271.0986 367.4996,-278.0928 330.1165,-282.7656"/>
<polygon fill="#f4f0ef" stroke="#f4f0ef" points="462.3514,-266.2364 472.8324,-269.4612 467.3128,-265.6161 472.2742,-264.9959 472.2742,-264.9959 472.2742,-264.9959 467.3128,-265.6161 471.716,-260.5307 462.3514,-266.2364 462.3514,-266.2364"/>
<polygon fill="none" stroke="#f4f0ef" points="329.6339,-282.8259 324.1764,-287.5392 317.7266,-284.3144 323.1841,-279.601 329.6339,-282.8259"/>
</g>
<!-- substances -->
<g id="substances" class="node">
<title>substances</title>
<polygon fill="#8b0000" stroke="transparent" points="253.5,-185.7177 253.5,-205.7177 327.5,-205.7177 327.5,-185.7177 253.5,-185.7177"/>
<text text-anchor="start" x="255.0982" y="-191.1177" font-family="Arial" font-size="14.00" fill="#ffffff">substances</text>
<polygon fill="none" stroke="#5c0000" stroke-opacity="0.666667" points="252.5,-184.7177 252.5,-206.7177 328.5,-206.7177 328.5,-184.7177 252.5,-184.7177"/>
</g>
<!-- emissions&#45;&gt;substances -->
<g id="emissions_4" class="edge">
<title>emissions:substance_id&#45;&gt;substances:substance_id</title>
<path fill="none" stroke="#f4f0ef" d="M462.671,-247.5284C427.1405,-236.8364 377.0715,-221.7693 340.0812,-210.638"/>
<polygon fill="#f4f0ef" stroke="#f4f0ef" points="462.6983,-247.5366 470.9774,-254.7274 467.4862,-248.9774 472.2742,-250.4183 472.2742,-250.4183 472.2742,-250.4183 467.4862,-248.9774 473.5709,-246.1091 462.6983,-247.5366 462.6983,-247.5366"/>
<polygon fill="none" stroke="#f4f0ef" points="340.057,-210.6307 333.1588,-212.7321 328.566,-207.1727 335.4641,-205.0714 340.057,-210.6307"/>
</g>
<!-- facilities&#45;&gt;anzsic&#45;2006 -->
<g id="facilities_1" class="edge">
<title>facilities:primary_anzsic_class_code&#45;&gt;anzsic&#45;2006:class_code</title>
<path fill="none" stroke="#f4f0ef" d="M106.7258,-241.7177C102.3098,-241.7177 97.7455,-241.7177 93.1742,-241.7177"/>
<polygon fill="#f4f0ef" stroke="#f4f0ef" points="106.903,-241.7178 116.903,-246.2177 111.903,-241.7177 116.903,-241.7177 116.903,-241.7177 116.903,-241.7177 111.903,-241.7177 116.9029,-237.2177 106.903,-241.7178 106.903,-241.7178"/>
<polygon fill="none" stroke="#f4f0ef" points="93.1548,-241.7178 87.1547,-245.7178 81.1548,-241.7177 87.1548,-237.7178 93.1548,-241.7178"/>
</g>
<!-- facility&#45;secondary&#45;anzsics -->
<g id="facility&#45;secondary&#45;anzsics" class="node">
<title>facility&#45;secondary&#45;anzsics</title>
<polygon fill="#9932cc" stroke="transparent" points="209.5,-93.7177 209.5,-113.7177 372.5,-113.7177 372.5,-93.7177 209.5,-93.7177"/>
<text text-anchor="start" x="211.2749" y="-99.1177" font-family="Arial" font-size="14.00" fill="#ffffff">facility&#45;secondary&#45;anzsics</text>
<polygon fill="none" stroke="#662188" stroke-opacity="0.666667" points="208,-92.7177 208,-114.7177 373,-114.7177 373,-92.7177 208,-92.7177"/>
</g>
<!-- facility&#45;secondary&#45;anzsics&#45;&gt;anzsic&#45;2006 -->
<g id="facility&#45;secondary&#45;anzsics_1" class="edge">
<title>facility&#45;secondary&#45;anzsics:anzsic_class_code&#45;&gt;anzsic&#45;2006:class_code</title>
<path fill="none" stroke="#f4f0ef" d="M224.085,-125.4839C218.5748,-127.765 213.1483,-130.1832 208,-132.7177 159.1274,-156.7773 107.1977,-192.3253 74.3444,-216.2197"/>
<polygon fill="#f4f0ef" stroke="#f4f0ef" points="224.111,-125.4737 235.0661,-125.9597 228.7571,-123.6259 233.4032,-121.7782 233.4032,-121.7782 233.4032,-121.7782 228.7571,-123.6259 231.7403,-117.5968 224.111,-125.4737 224.111,-125.4737"/>
<polygon fill="none" stroke="#f4f0ef" points="74.0487,-216.4368 71.5798,-223.212 64.376,-223.5389 66.845,-216.7636 74.0487,-216.4368"/>
</g>
<!-- facility&#45;secondary&#45;anzsics&#45;&gt;facilities -->
<g id="facility&#45;secondary&#45;anzsics_2" class="edge">
<title>facility&#45;secondary&#45;anzsics:facility_id&#45;&gt;facilities:facility_id</title>
<path fill="none" stroke="#f4f0ef" d="M220.7911,-126.695C216.2559,-129.4 211.9363,-132.3986 208,-135.7177 183.5882,-156.3021 166.0965,-188.7859 155.7308,-212.372"/>
<polygon fill="#f4f0ef" stroke="#f4f0ef" points="220.9425,-126.6131 231.8785,-125.8041 225.3383,-124.2305 229.7341,-121.8479 229.7341,-121.8479 229.7341,-121.8479 225.3383,-124.2305 227.5898,-117.8916 220.9425,-126.6131 220.9425,-126.6131"/>
<polygon fill="none" stroke="#f4f0ef" points="155.7213,-212.3948 157.0946,-219.474 151.0882,-223.4644 149.7149,-216.3852 155.7213,-212.3948"/>
</g>
<!-- reports&#45;&gt;anzsic&#45;2006 -->
<g id="reports_1" class="edge">
<title>reports:primary_anzsic_class_code&#45;&gt;anzsic&#45;2006:class_code</title>
<path fill="none" stroke="#f4f0ef" d="M253.0813,-286.109C217.6617,-284.0031 163.1845,-279.2486 117,-268.7177 109.0656,-266.9085 100.8157,-264.5406 92.797,-261.9582"/>
<polygon fill="#f4f0ef" stroke="#f4f0ef" points="253.4467,-286.1291 263.1832,-291.1741 258.4391,-286.405 263.4315,-286.681 263.4315,-286.681 263.4315,-286.681 258.4391,-286.405 263.6799,-282.1878 253.4467,-286.1291 253.4467,-286.1291"/>
<polygon fill="none" stroke="#f4f0ef" points="92.6448,-261.9068 85.6794,-263.7732 81.2776,-258.0615 88.243,-256.1951 92.6448,-261.9068"/>
</g>
<!-- reports&#45;&gt;facilities -->
<g id="reports_2" class="edge">
<title>reports:facility_id, facility_name, jurisdiction_code, jurisdiction_facility_id, registered_business_name&#45;&gt;facilities:facility_id, facility_name, jurisdiction_code, jurisdiction_facility_id, registered_business_name</title>
<path fill="none" stroke="#f4f0ef" d="M253.7849,-276.1499C232.4982,-269.4431 205.6913,-260.9971 183.9549,-254.1487"/>
<polygon fill="#f4f0ef" stroke="#f4f0ef" points="253.8429,-276.1681 262.0284,-283.4653 258.6118,-277.6707 263.3807,-279.1733 263.3807,-279.1733 263.3807,-279.1733 258.6118,-277.6707 264.733,-274.8812 253.8429,-276.1681 253.8429,-276.1681"/>
<polygon fill="none" stroke="#f4f0ef" points="183.9134,-254.1357 176.9887,-256.1478 172.4681,-250.5296 179.3928,-248.5175 183.9134,-254.1357"/>
</g>
<!-- transfer&#45;destinations -->
<g id="transfer&#45;destinations" class="node">
<title>transfer&#45;destinations</title>
<polygon fill="#ff1493" stroke="transparent" points="225.5,-39.7177 225.5,-59.7177 355.5,-59.7177 355.5,-39.7177 225.5,-39.7177"/>
<text text-anchor="start" x="227.0996" y="-45.1177" font-family="Arial" font-size="14.00" fill="#ffffff">transfer&#45;destinations</text>
<polygon fill="none" stroke="#aa0d62" stroke-opacity="0.666667" points="224.5,-38.7177 224.5,-60.7177 356.5,-60.7177 356.5,-38.7177 224.5,-38.7177"/>
</g>
<!-- transfers -->
<g id="transfers" class="node">
<title>transfers</title>
<polygon fill="#ff1493" stroke="transparent" points="477.5,-139.7177 477.5,-159.7177 535.5,-159.7177 535.5,-139.7177 477.5,-139.7177"/>
<text text-anchor="start" x="479.2749" y="-145.1177" font-family="Arial" font-size="14.00" fill="#ffffff">transfers</text>
<polygon fill="none" stroke="#aa0d62" stroke-opacity="0.666667" points="476.5,-138.7177 476.5,-160.7177 536.5,-160.7177 536.5,-138.7177 476.5,-138.7177"/>
</g>
<!-- transfers&#45;&gt;anzsic&#45;2006 -->
<g id="transfers_1" class="edge">
<title>transfers:primary_anzsic_class_code&#45;&gt;anzsic&#45;2006:class_code</title>
<path fill="none" stroke="#f4f0ef" d="M488.5274,-123.1916C465.8068,-92.2914 423.5026,-42.9023 373,-22.7177 304.9041,4.4985 273.7452,9.7683 208,-22.7177 127.1243,-62.68 74.5487,-162.4918 52.4364,-212.3758"/>
<polygon fill="#f4f0ef" stroke="#f4f0ef" points="488.5731,-123.2552 490.7521,-134.0024 491.49,-127.3161 494.407,-131.3771 494.407,-131.3771 494.407,-131.3771 491.49,-127.3161 498.0619,-128.7518 488.5731,-123.2552 488.5731,-123.2552"/>
<polygon fill="none" stroke="#f4f0ef" points="52.3343,-212.6132 53.6358,-219.7059 47.5893,-223.6352 46.2878,-216.5425 52.3343,-212.6132"/>
</g>
<!-- transfers&#45;&gt;facilities -->
<g id="transfers_2" class="edge">
<title>transfers:facility_id, facility_name, jurisdiction_code, jurisdiction_facility_id, registered_business_name&#45;&gt;facilities:facility_id, facility_name, jurisdiction_code, jurisdiction_facility_id, registered_business_name</title>
<path fill="none" stroke="#f4f0ef" d="M466.0008,-142.8805C406.1465,-134.7794 292.0903,-127.1364 208,-168.7177 188.2374,-178.49 172.0478,-197.4304 160.9622,-213.5693"/>
<polygon fill="#f4f0ef" stroke="#f4f0ef" points="466.278,-142.92 475.5412,-148.7889 471.2278,-143.627 476.1776,-144.3341 476.1776,-144.3341 476.1776,-144.3341 471.2278,-143.627 476.8139,-139.8793 466.278,-142.92 466.278,-142.92"/>
<polygon fill="none" stroke="#f4f0ef" points="160.9571,-213.5773 161.0488,-220.7878 154.4282,-223.6458 154.3364,-216.4352 160.9571,-213.5773"/>
</g>
<!-- transfers&#45;&gt;reports -->
<g id="transfers_3" class="edge">
<title>transfers:report_id, report_year&#45;&gt;reports:report_id, report_year</title>
<path fill="none" stroke="#f4f0ef" d="M469.7629,-173.1886C430.284,-198.4113 367.8589,-238.294 328.0633,-263.7189"/>
<polygon fill="#f4f0ef" stroke="#f4f0ef" points="469.8348,-173.1427 480.6845,-171.5509 474.0483,-170.4508 478.2618,-167.7588 478.2618,-167.7588 478.2618,-167.7588 474.0483,-170.4508 475.839,-163.9667 469.8348,-173.1427 469.8348,-173.1427"/>
<polygon fill="none" stroke="#f4f0ef" points="327.8356,-263.8644 324.9329,-270.4655 317.7232,-270.3251 320.6258,-263.724 327.8356,-263.8644"/>
</g>
<!-- transfers&#45;&gt;substances -->
<g id="transfers_4" class="edge">
<title>transfers:substance_id&#45;&gt;substances:substance_id</title>
<path fill="none" stroke="#f4f0ef" d="M466.6728,-158.1994C431.1317,-165.7684 378.9282,-176.8858 340.5709,-185.0544"/>
<polygon fill="#f4f0ef" stroke="#f4f0ef" points="466.6855,-158.1968 477.4035,-160.5151 471.5758,-157.1553 476.4661,-156.1138 476.4661,-156.1138 476.4661,-156.1138 471.5758,-157.1553 475.5288,-151.7125 466.6855,-158.1968 466.6855,-158.1968"/>
<polygon fill="none" stroke="#f4f0ef" points="340.3793,-185.0952 335.3441,-190.2572 328.6425,-187.5948 333.6777,-182.4327 340.3793,-185.0952"/>
</g>
<!-- transfers&#45;&gt;transfer&#45;destinations -->
<g id="transfers_5" class="edge">
<title>transfers:transfer_destination_id&#45;&gt;transfer&#45;destinations:transfer_destination_id</title>
<path fill="none" stroke="#f4f0ef" d="M468.2307,-126.3304C442.0406,-110.9447 406.1811,-91.0738 373,-76.7177 369.2201,-75.0823 365.3071,-73.4884 361.3325,-71.9457"/>
<polygon fill="#f4f0ef" stroke="#f4f0ef" points="468.4681,-126.471 474.7769,-135.4404 472.7696,-129.02 477.071,-131.569 477.071,-131.569 477.071,-131.569 472.7696,-129.02 479.3652,-127.6977 468.4681,-126.471 468.4681,-126.471"/>
<polygon fill="none" stroke="#f4f0ef" points="361.275,-71.9244 354.257,-73.5824 350.0274,-67.742 357.0453,-66.084 361.275,-71.9244"/>
</g>
</g>
</svg>

